<?xml version="1.0" encoding="utf-8"?>
<!-- Generator: Adobe Illustrator 21.1.0, SVG Export Plug-In . SVG Version: 6.00 Build 0)  -->
<svg version="1.1" id="Layer_1" xmlns="http://www.w3.org/2000/svg" xmlns:xlink="http://www.w3.org/1999/xlink" x="0px" y="0px"
	 viewBox="0 0 199 125" style="enable-background:new 0 0 199 125;" xml:space="preserve">
<path fill="#F59E0B" d="M190.7,10.4C185.5,3.9,178,0.5,169,0.5c-18.8,0-39.7,16.7-45.7,21.8l-17.1-12.1c-0.1,0-0.1-0.1-0.2-0.1
	c-4.3-2.8-9.9-2.8-14.1,0.1c-0.1,0-0.1,0.1-0.2,0.1L75.6,22.3C69.5,17.1,48.7,0.5,30,0.5c-9,0-16.5,3.4-21.7,9.9
	c-7.5,9.2-9.7,24.2-6.2,41.1C7,75,25.4,77.5,33,77.5c4.9,0,9.4-0.3,13.3-0.8c-8.8,9.9-16,20.4-16.5,21c-1.1,1.6-1.2,3.7-0.2,5.3
	c1,1.7,2.8,2.6,4.7,2.5l21-1.7c2.4,3.8,7.3,11.1,13.8,18.9c1,1.2,2.4,1.8,3.9,1.8c0.4,0,0.9-0.1,1.3-0.2c1.9-0.5,3.3-2.1,3.6-4.1
	C81.4,96.8,92.9,77.2,99,68.1c6.1,9.1,17.6,28.7,21,52.2c0.3,2,1.7,3.6,3.6,4.1c0.4,0.1,0.9,0.2,1.3,0.2c1.5,0,2.9-0.7,3.9-1.8
	c6.4-7.9,11.3-15.2,13.8-18.9l21,1.7c1.9,0.2,3.8-0.8,4.7-2.5c1-1.7,0.9-3.7-0.2-5.3c-0.4-0.6-7.7-11.3-16.6-21.2
	c4.3,0.6,9.1,1,14.5,1c7.6,0,26-2.5,30.9-26C200.5,34.6,198.2,19.6,190.7,10.4z M130,29.8c2.3-1.9,6.8-5.6,12.3-9.2
	c10.3-6.6,19.5-10.1,26.7-10.1c5.9,0,10.6,2.1,13.9,6.2c4.7,5.8,6.5,15.1,5.2,26.1c-3.7-2.4-9.4-4.3-18.2-4.3
	c-16.5,0-30.9,5.6-40,10.1v-15V29.8z M80.2,31.3c0.1,0,0.1-0.1,0.2-0.1l17.3-12.7c0.9-0.6,2-0.6,2.9,0l18.1,12.8
	c0.1,0,0.1,0.1,0.2,0.1c0.8,0.5,1.2,1.4,1.2,2.3v19.1c0,1.5-1.2,2.7-2.7,2.7h-3.6c-3.3-0.5-6.2-0.7-8.7-0.8V49c0-3-2.5-5.5-5.5-5.5
	h-0.1c-3,0-5.5,2.4-5.5,5.5v5.6c-2.6,0.1-6,0.4-9.7,0.9h-2.6c-1.5,0-2.7-1.2-2.7-2.7V33.6C79,32.7,79.4,31.8,80.2,31.3z M16.1,16.7
	c3.3-4.1,8-6.2,13.9-6.2c7.2,0,16.4,3.5,26.7,10.1c5.6,3.6,10.1,7.2,12.3,9.2v3.8v15.1c-9.1-4.6-23.5-10.1-40-10.1
	c-8.8,0-14.5,1.9-18.2,4.3C9.6,31.8,11.4,22.5,16.1,16.7z M13.5,54.7c0.2-0.4,0.3-0.7,0.4-1.1c0-0.1,2.2-5.1,15.1-5.1
	c15.6,0,29.5,5.9,37.4,10.1c-4.6,3.9-14.3,8.9-33.4,8.9C26.1,67.5,17.6,65.1,13.5,54.7z M70.2,107.7c-4.9-6.7-7.9-11.7-8-11.8
	c-0.9-1.5-2.5-2.4-4.3-2.4c-0.1,0-0.3,0-0.4,0l-13.1,1.1c5.4-7,13.4-16.6,20.5-22.1c5-3.8,12.9-5.9,20-7h3.6
	C82.9,74.5,74.8,89.5,70.2,107.7z M140.4,93.5c-1.9-0.2-3.7,0.8-4.7,2.4c0,0.1-3.1,5.1-8,11.8c-4.5-18.2-12.7-33.2-18.5-42.2h3.7
	c7.1,1.1,15,3.1,20,7c7.2,5.5,15.1,15.1,20.5,22.1L140.4,93.5z M166,67.5c-19.1,0-28.7-5-33.4-8.9c7.8-4.2,21.7-10.1,37.4-10.1
	c12.9,0,15.1,5,15.1,5.1c0.1,0.4,0.2,0.8,0.4,1.1C181.4,65.1,172.9,67.5,166,67.5z"/>
</svg>
